<svg xmlns="http://www.w3.org/2000/svg" width="1168" height="315" viewBox="0 0 1168 315">
<g>
<path d="M 139.50 272.00 C136.59,273.11 119.16,273.10 106.00,271.99 C92.84,270.87 77.64,264.71 69.44,257.18 C64.25,252.41 56.08,242.08 53.56,237.13 C52.42,234.86 51.49,233.07 50.73,231.22 C47.50,223.25 47.50,213.97 47.50,160.13 C47.50,158.78 47.50,157.40 47.50,156.00 C47.50,92.06 47.52,91.44 49.73,84.41 C54.36,69.68 66.20,55.96 80.13,49.18 C82.94,47.82 85.13,46.73 87.40,45.86 C96.24,42.50 106.37,42.50 159.28,42.50 L 162.50 42.50 C220.53,42.51 226.01,42.65 232.00,44.34 C253.05,50.27 268.79,66.37 274.69,88.00 C276.96,96.28 277.36,136.00 275.21,139.75 C273.23,143.22 271.29,142.45 269.01,137.28 C267.86,134.69 266.60,132.33 266.21,132.03 C265.82,131.74 263.88,129.02 261.90,126.00 C252.32,111.34 249.24,106.96 243.84,100.33 C240.63,96.38 237.99,92.56 237.98,91.83 C237.97,90.76 237.81,90.75 237.15,91.79 C236.60,92.66 235.98,91.86 235.20,89.29 C233.60,83.92 228.79,76.70 224.86,73.73 C219.98,70.06 212.89,68.00 205.09,68.00 C197.31,68.00 194.34,68.91 180.89,75.38 C165.26,82.90 160.95,82.72 141.62,73.74 C130.61,68.63 130.40,68.58 120.50,68.54 C111.54,68.50 109.98,68.78 105.50,71.17 C99.58,74.33 91.99,81.90 89.10,87.52 C84.93,95.65 83.94,108.29 86.51,120.50 C87.32,124.35 90.77,135.60 94.17,145.50 L 100.36 163.50 L 101.08 186.50 C101.48,199.15 102.30,211.98 102.91,215.00 C105.59,228.22 111.84,241.90 117.48,246.85 C119.47,248.60 120.88,250.38 120.61,250.82 C120.12,251.61 125.13,255.33 135.82,262.10 C140.06,264.78 141.58,266.36 141.82,268.35 C142.07,270.44 141.57,271.21 139.50,272.00 ZM 720.00 223.53 C713.26,224.45 700.45,224.97 684.25,224.98 L 659.00 225.00 L 659.00 80.00 L 687.87 80.00 C719.84,80.00 728.23,80.92 741.87,85.89 C756.83,91.35 767.33,100.51 773.46,113.47 C779.28,125.75 780.45,132.26 780.48,152.67 C780.50,169.90 780.39,170.99 778.28,173.84 C776.68,176.00 776.40,177.01 777.28,177.43 C778.21,177.87 778.22,178.13 777.31,178.56 C776.65,178.88 776.35,179.89 776.65,180.81 C777.10,182.21 777.01,182.25 776.16,181.05 C775.59,180.25 775.39,179.18 775.71,178.67 C776.02,178.16 775.65,177.97 774.89,178.25 C774.13,178.52 773.61,179.26 773.75,179.88 C773.89,180.49 773.12,181.00 772.04,181.00 C770.95,181.00 769.56,181.95 768.94,183.12 C768.04,184.78 768.07,185.07 769.05,184.47 C769.86,183.97 770.06,184.10 769.61,184.82 C769.22,185.45 769.42,186.92 770.05,188.10 C770.85,189.59 770.86,190.03 770.10,189.56 C768.53,188.59 768.74,190.05 770.44,191.93 C771.69,193.32 771.62,193.83 769.87,196.01 C768.04,198.28 767.96,198.30 768.98,196.24 C769.87,194.41 769.79,193.85 768.55,193.38 C767.70,193.06 767.31,192.28 767.67,191.65 C768.04,190.99 767.93,190.86 767.41,191.33 C766.91,191.79 766.44,192.58 766.38,193.08 C766.31,193.59 766.19,194.45 766.12,195.00 C766.06,195.55 765.30,196.00 764.44,196.00 C763.58,196.00 763.16,196.45 763.50,197.00 C764.09,197.96 762.81,198.40 760.33,198.09 C759.68,198.01 758.82,198.49 758.41,199.14 C757.90,199.97 758.20,200.14 759.38,199.69 C760.44,199.28 761.02,199.50 760.92,200.27 C760.56,203.10 761.06,203.92 762.75,203.27 C764.39,202.65 764.39,202.72 762.82,204.31 C761.05,206.10 759.50,206.62 760.44,205.10 C760.74,204.61 760.29,203.94 759.44,203.62 C758.41,203.22 758.13,203.43 758.59,204.26 C759.13,205.20 759.00,205.22 758.04,204.35 C757.09,203.47 756.35,203.57 754.95,204.78 C753.93,205.65 753.35,206.75 753.65,207.24 C753.95,207.73 753.41,209.00 752.44,210.06 C751.48,211.13 751.04,212.00 751.47,212.00 C753.32,212.00 749.36,215.19 745.25,217.01 C737.87,220.27 731.09,222.03 720.00,223.53 ZM 379.07 161.75 L 379.00 225.00 L 360.00 225.00 L 360.00 80.00 L 389.50 80.04 L 407.50 128.08 C417.40,154.49 425.91,176.11 426.40,176.11 C427.13,176.12 447.36,123.88 460.82,87.25 L 463.49 80.00 L 493.00 80.00 L 493.00 225.00 L 474.01 225.00 L 473.76 161.47 L 473.50 97.93 L 454.97 147.22 L 436.43 196.50 L 426.47 196.77 L 416.50 197.05 L 399.57 151.77 C390.26,126.87 381.86,104.70 380.89,102.50 C379.20,98.63 379.14,100.61 379.07,161.75 ZM 678.51 207.88 C679.24,209.80 715.92,208.79 724.43,206.61 C749.26,200.27 760.50,183.20 760.39,152.00 C760.27,119.93 748.82,103.12 723.21,97.40 C717.55,96.13 710.58,95.65 697.00,95.59 L 678.50 95.50 L 678.24 151.00 C678.10,181.52 678.22,207.12 678.51,207.88 ZM 626.00 209.02 L 626.00 225.00 L 532.50 225.00 L 533.03 80.00 L 624.00 80.00 L 624.00 96.00 L 552.00 96.00 L 552.00 139.00 L 621.00 139.00 L 621.00 156.00 L 551.97 156.00 L 552.50 208.50 L 589.25 208.76 ZM 217.36 271.41 C214.96,272.34 177.00,272.10 177.00,271.16 C177.00,270.70 175.19,269.72 172.99,269.00 C167.05,267.04 166.27,265.55 170.02,263.34 C171.73,262.33 173.82,260.06 174.66,258.30 C175.50,256.54 177.28,253.91 178.63,252.46 C182.71,248.05 184.04,245.46 184.50,240.99 C184.75,238.64 185.10,236.56 185.30,236.37 C185.49,236.18 186.69,237.00 187.97,238.19 C189.25,239.38 191.02,240.42 191.90,240.50 C193.60,240.66 203.01,249.66 202.25,250.41 C202.01,250.66 205.27,254.38 209.50,258.68 C217.84,267.17 219.87,270.45 217.36,271.41 ZM 814.09 132.22 C814.02,137.25 813.75,141.59 813.48,141.85 C813.22,142.12 813.00,128.31 813.00,111.17 L 813.00 80.00 L 832.00 80.00 L 831.82 99.25 C831.69,112.38 831.45,115.98 831.07,110.58 C830.76,106.22 830.05,102.53 829.50,102.36 C828.00,101.92 825.72,104.09 823.61,108.00 C822.56,109.93 820.92,112.40 819.96,113.50 C815.58,118.50 814.21,122.87 814.09,132.22 ZM 757.21 208.98 C756.82,209.28 756.21,209.89 755.85,210.33 C755.49,210.77 754.90,210.65 754.54,210.07 C754.18,209.48 754.41,209.00 755.06,209.00 C755.90,209.00 755.84,208.51 754.87,207.34 C753.62,205.82 753.69,205.80 755.71,207.05 C756.93,207.81 757.60,208.68 757.21,208.98 ZM 763.42 200.36 C763.07,201.26 762.38,202.00 761.89,202.00 C760.61,202.00 760.79,201.42 762.52,199.98 C763.80,198.92 763.94,198.99 763.42,200.36 ZM 767.50 188.00 C767.16,188.55 767.36,189.00 767.94,189.00 C768.52,189.00 769.00,188.55 769.00,188.00 C769.00,187.45 768.80,187.00 768.56,187.00 C768.32,187.00 767.84,187.45 767.50,188.00 Z" fill="rgb(28,122,166)"/>
<path d="M 200.49 247.77 C201.49,248.55 202.41,249.00 203.14,249.00 C207.01,249.00 213.54,241.46 216.77,233.25 C221.99,220.01 223.23,211.84 223.97,185.50 L 224.65 161.50 L 230.80 143.50 C239.58,117.83 240.65,106.89 235.92,91.50 C235.80,91.11 235.67,90.73 235.55,90.35 C236.17,92.07 236.68,92.53 237.15,91.79 C237.81,90.75 237.97,90.76 237.98,91.83 C237.99,92.56 240.63,96.38 243.84,100.33 C249.24,106.96 252.32,111.34 261.90,126.00 C263.88,129.02 265.82,131.74 266.21,132.03 C266.60,132.33 267.86,134.69 269.01,137.28 C271.29,142.45 273.23,143.22 275.21,139.75 C275.85,138.63 276.27,134.29 276.47,128.54 C276.49,136.04 276.50,145.07 276.50,156.00 C276.50,211.86 276.34,218.14 274.71,224.50 C269.95,243.09 258.95,256.99 242.71,264.96 C234.69,268.89 229.02,270.42 217.88,271.14 C219.51,269.89 217.18,266.49 209.50,258.68 C205.27,254.38 202.01,250.66 202.25,250.41 C202.49,250.17 201.72,249.11 200.49,247.77 ZM 139.50 272.00 C141.57,271.21 142.07,270.44 141.82,268.35 C141.58,266.36 140.06,264.78 135.82,262.10 C125.13,255.33 120.12,251.61 120.61,250.82 C120.86,250.42 119.72,248.92 118.02,247.34 C120.94,249.61 123.47,249.32 126.77,246.54 C132.39,241.81 135.11,233.20 139.48,206.32 C141.30,195.13 143.85,188.09 148.91,180.26 C157.55,166.90 168.12,166.52 176.82,179.28 C182.09,187.00 184.96,196.15 187.49,213.36 C188.81,222.32 190.87,232.26 192.07,235.45 C193.31,238.76 195.40,242.21 197.53,244.79 C195.19,242.59 192.70,240.58 191.90,240.50 C191.02,240.42 189.25,239.38 187.97,238.19 C186.69,237.00 185.49,236.18 185.30,236.37 C185.10,236.56 184.75,238.64 184.50,240.99 C184.04,245.46 182.71,248.05 178.63,252.46 C177.28,253.91 175.50,256.54 174.66,258.30 C173.82,260.06 171.73,262.33 170.02,263.34 C166.27,265.55 167.05,267.04 172.99,269.00 C175.19,269.72 177.00,270.70 177.00,271.16 C177.00,271.54 183.34,271.81 191.00,271.93 C174.71,272.20 154.51,272.35 137.79,272.36 C138.56,272.26 139.14,272.14 139.50,272.00 ZM 276.15 101.07 C275.83,95.21 275.33,90.35 274.69,88.00 C273.77,84.62 272.61,81.37 271.22,78.27 C272.61,81.37 273.78,84.61 274.71,88.00 C275.46,90.72 275.90,93.47 276.15,101.07 ZM 228.43 77.27 C225.72,74.20 222.48,71.91 218.69,70.37 C220.99,71.26 223.07,72.39 224.86,73.73 C226.01,74.60 227.23,75.83 228.43,77.27 ZM 235.35 89.75 C234.60,87.59 233.76,85.60 232.81,83.77 C233.85,85.67 234.69,87.57 235.20,89.29 C235.25,89.45 235.30,89.60 235.35,89.75 ZM 88.24 267.91 C80.84,265.20 74.04,261.41 69.44,257.18 C74.03,261.40 80.83,265.20 88.24,267.91 Z" fill="rgb(9,56,101)"/>
<path d="M 1014.48 223.75 C1014.18,224.64 1011.08,225.00 1003.58,225.00 L 993.09 225.00 L 995.45 218.75 C996.75,215.31 1002.15,201.25 1007.44,187.50 C1012.73,173.75 1020.63,153.05 1025.00,141.50 C1029.37,129.95 1036.52,111.28 1040.89,100.00 L 1048.84 79.50 L 1071.16 79.50 L 1074.67 88.50 C1076.60,93.45 1081.24,105.60 1084.99,115.50 C1092.50,135.33 1102.98,162.87 1116.90,199.38 C1121.90,212.52 1126.00,223.66 1126.00,224.13 C1126.00,224.61 1121.54,225.00 1116.10,225.00 C1106.20,225.00 1106.20,225.00 1105.23,222.25 C1096.11,196.26 1093.61,189.38 1093.07,188.77 C1092.72,188.36 1077.86,188.01 1060.05,187.97 C1034.58,187.92 1027.50,188.19 1026.87,189.20 C1026.27,190.19 1017.50,214.60 1014.48,223.75 ZM 955.63 224.98 C951.30,226.08 942.98,227.20 937.13,227.47 C901.13,229.12 874.95,210.41 865.84,176.50 C862.67,164.69 862.69,140.05 865.88,128.00 C872.45,103.25 887.44,86.87 910.00,79.84 C916.66,77.76 919.40,77.51 934.50,77.55 C950.40,77.59 952.05,77.78 960.00,80.41 C968.23,83.14 975.65,86.76 979.25,89.82 C980.70,91.05 981.00,93.01 981.00,101.18 L 981.00 111.05 L 975.94 107.05 C957.47,92.45 929.78,88.73 910.09,98.21 C903.89,101.19 893.92,111.41 890.77,118.00 C885.81,128.39 884.57,135.15 884.56,152.00 C884.55,163.63 884.98,169.12 886.29,174.00 C891.51,193.43 902.35,204.93 919.72,209.43 C927.46,211.43 943.75,211.48 951.29,209.51 C958.75,207.57 969.28,202.22 975.83,197.04 L 981.07 192.90 L 980.78 203.67 L 980.50 214.44 L 972.00 218.71 C967.33,221.06 959.96,223.88 955.63,224.98 ZM 832.00 225.00 L 813.16 225.00 L 812.62 218.75 C812.33,215.31 812.18,182.57 812.30,146.00 L 812.50 79.50 L 822.25 79.21 L 832.00 78.93 L 832.00 225.00 ZM 1034.47 168.26 L 1033.78 171.00 L 1059.89 171.00 C1076.17,171.00 1086.00,170.63 1086.00,170.03 C1086.00,169.49 1083.12,161.28 1079.60,151.78 C1076.08,142.27 1070.34,126.74 1066.85,117.25 C1063.36,107.76 1060.23,100.00 1059.89,100.00 C1059.55,100.00 1058.25,102.81 1057.01,106.25 C1055.77,109.69 1050.35,124.43 1044.96,139.01 C1039.57,153.58 1034.85,166.75 1034.47,168.26 ZM 814.09 132.22 C814.21,122.87 815.58,118.50 819.96,113.50 C820.92,112.40 822.56,109.93 823.61,108.00 C825.72,104.09 828.00,101.92 829.50,102.36 C830.05,102.53 830.76,106.22 831.07,110.58 C831.45,115.98 831.69,112.38 831.82,99.25 L 832.00 80.00 L 813.00 80.00 L 813.00 111.17 C813.00,128.31 813.22,142.12 813.48,141.85 C813.75,141.59 814.02,137.25 814.09,132.22 ZM 776.88 181.91 C771.99,197.42 762.55,208.56 748.55,215.37 C748.21,215.53 747.87,215.70 747.53,215.86 C750.65,214.09 752.97,212.00 751.47,212.00 C751.04,212.00 751.48,211.13 752.44,210.06 C753.41,209.00 753.95,207.73 753.65,207.24 C753.35,206.75 753.93,205.65 754.95,204.78 C756.35,203.57 757.09,203.47 758.04,204.35 C759.00,205.22 759.13,205.20 758.59,204.26 C758.13,203.43 758.41,203.22 759.44,203.62 C760.29,203.94 760.74,204.61 760.44,205.10 C759.50,206.62 761.05,206.10 762.82,204.31 C764.39,202.72 764.39,202.65 762.75,203.27 C761.06,203.92 760.56,203.10 760.92,200.27 C761.02,199.50 760.44,199.28 759.38,199.69 C758.20,200.14 757.90,199.97 758.41,199.14 C758.82,198.49 759.68,198.01 760.33,198.09 C762.81,198.40 764.09,197.96 763.50,197.00 C763.16,196.45 763.58,196.00 764.44,196.00 C765.30,196.00 766.06,195.55 766.12,195.00 C766.19,194.45 766.31,193.59 766.38,193.08 C766.44,192.58 766.91,191.79 767.41,191.33 C767.93,190.86 768.04,190.99 767.67,191.65 C767.31,192.28 767.70,193.06 768.55,193.38 C769.79,193.85 769.87,194.41 768.98,196.24 C767.96,198.30 768.04,198.28 769.87,196.01 C771.62,193.83 771.69,193.32 770.44,191.93 C768.74,190.05 768.53,188.59 770.10,189.56 C770.86,190.03 770.85,189.59 770.05,188.10 C769.42,186.92 769.22,185.45 769.61,184.82 C770.06,184.10 769.86,183.97 769.05,184.47 C768.07,185.07 768.04,184.78 768.94,183.12 C769.56,181.95 770.95,181.00 772.04,181.00 C773.12,181.00 773.89,180.49 773.75,179.88 C773.61,179.26 774.13,178.52 774.89,178.25 C775.65,177.97 776.02,178.16 775.71,178.67 C775.39,179.18 775.59,180.25 776.16,181.05 C776.57,181.63 776.81,181.92 776.88,181.91 ZM 779.22 172.39 C778.62,175.69 777.85,178.83 776.91,181.81 C776.91,181.66 776.81,181.33 776.65,180.81 C776.35,179.89 776.65,178.88 777.31,178.56 C778.22,178.13 778.21,177.87 777.28,177.43 C776.40,177.01 776.68,176.00 778.28,173.84 C778.65,173.34 778.96,172.89 779.22,172.39 ZM 757.21 208.98 C757.60,208.68 756.93,207.81 755.71,207.05 C753.69,205.80 753.62,205.82 754.87,207.34 C755.84,208.51 755.90,209.00 755.06,209.00 C754.41,209.00 754.18,209.48 754.54,210.07 C754.90,210.65 755.49,210.77 755.85,210.33 C756.21,209.89 756.82,209.28 757.21,208.98 ZM 780.01 137.06 C780.31,139.79 780.52,142.73 780.68,146.00 C780.97,152.07 780.88,157.78 780.43,163.14 C780.48,160.53 780.48,157.14 780.48,152.67 C780.47,146.32 780.35,141.31 780.01,137.06 ZM 763.42 200.36 C763.94,198.99 763.80,198.92 762.52,199.98 C760.79,201.42 760.61,202.00 761.89,202.00 C762.38,202.00 763.07,201.26 763.42,200.36 ZM 767.50 188.00 C767.84,187.45 768.32,187.00 768.56,187.00 C768.80,187.00 769.00,187.45 769.00,188.00 C769.00,188.55 768.52,189.00 767.94,189.00 C767.36,189.00 767.16,188.55 767.50,188.00 ZM 720.00 223.53 C724.58,222.91 728.42,222.25 731.88,221.45 C728.44,222.25 724.62,222.90 720.00,223.53 Z" fill="rgb(59,149,196)"/>
<path d="M 0.00 157.50 L 0.00 0.00 L 584.00 0.00 L 1168.00 0.00 L 1168.00 157.50 L 1168.00 315.00 L 584.00 315.00 L 0.00 315.00 L 0.00 157.50 ZM 210.50 271.48 C226.85,270.94 233.10,269.67 242.71,264.96 C258.95,256.99 269.95,243.09 274.71,224.50 C276.34,218.14 276.50,211.86 276.50,156.00 C276.50,99.99 276.34,93.92 274.71,88.00 C268.74,66.32 253.04,50.27 232.00,44.34 C226.01,42.65 220.53,42.51 162.50,42.50 C92.75,42.50 94.08,42.39 80.13,49.18 C66.20,55.96 54.36,69.68 49.73,84.41 C47.52,91.44 47.50,92.06 47.50,156.00 C47.50,226.59 47.37,224.91 53.56,237.13 C56.08,242.08 64.25,252.41 69.44,257.18 C77.65,264.73 92.88,270.89 106.00,271.96 C114.77,272.68 183.97,272.36 210.50,271.48 ZM 955.63 224.98 C959.96,223.88 967.33,221.06 972.00,218.71 L 980.50 214.44 L 980.78 203.67 L 981.07 192.90 L 975.83 197.04 C969.28,202.22 958.75,207.57 951.29,209.51 C943.75,211.48 927.46,211.43 919.72,209.43 C902.35,204.93 891.51,193.43 886.29,174.00 C884.98,169.12 884.55,163.63 884.56,152.00 C884.57,135.15 885.81,128.39 890.77,118.00 C893.92,111.41 903.89,101.19 910.09,98.21 C929.78,88.73 957.47,92.45 975.94,107.05 L 981.00 111.05 L 981.00 101.18 C981.00,93.01 980.70,91.05 979.25,89.82 C975.65,86.76 968.23,83.14 960.00,80.41 C952.05,77.78 950.40,77.59 934.50,77.55 C919.40,77.51 916.66,77.76 910.00,79.84 C887.44,86.87 872.45,103.25 865.88,128.00 C862.69,140.05 862.67,164.69 865.84,176.50 C874.95,210.41 901.13,229.12 937.13,227.47 C942.98,227.20 951.30,226.08 955.63,224.98 ZM 379.07 161.75 C379.14,100.61 379.20,98.63 380.89,102.50 C381.86,104.70 390.26,126.87 399.57,151.77 L 416.50 197.05 L 426.47 196.77 L 436.43 196.50 L 454.97 147.22 L 473.50 97.93 L 473.76 161.47 L 474.01 225.00 L 483.51 225.00 L 493.00 225.00 L 493.00 152.50 L 493.00 80.00 L 478.24 80.00 L 463.49 80.00 L 460.82 87.25 C447.36,123.88 427.13,176.12 426.40,176.11 C425.91,176.11 417.40,154.49 407.50,128.08 L 389.50 80.04 L 374.75 80.02 L 360.00 80.00 L 360.00 152.50 L 360.00 225.00 L 369.50 225.00 L 379.00 225.00 L 379.07 161.75 ZM 626.00 217.01 L 626.00 209.02 L 589.25 208.76 L 552.50 208.50 L 552.23 182.25 L 551.97 156.00 L 586.48 156.00 L 621.00 156.00 L 621.00 147.50 L 621.00 139.00 L 586.50 139.00 L 552.00 139.00 L 552.00 117.50 L 552.00 96.00 L 588.00 96.00 L 624.00 96.00 L 624.00 88.00 L 624.00 80.00 L 578.51 80.00 L 533.03 80.00 L 532.76 152.50 L 532.50 225.00 L 579.25 225.00 L 626.00 225.00 L 626.00 217.01 ZM 720.00 223.53 C732.56,221.82 739.13,219.95 748.55,215.37 C771.67,204.13 782.35,181.08 780.68,146.00 C779.99,131.64 778.17,123.42 773.46,113.47 C767.33,100.52 756.84,91.36 741.87,85.89 C728.23,80.92 719.84,80.00 687.87,80.00 L 659.00 80.00 L 659.00 152.50 L 659.00 225.00 L 684.25 224.98 C700.45,224.97 713.26,224.45 720.00,223.53 ZM 832.00 151.96 L 832.00 78.93 L 822.25 79.21 L 812.50 79.50 L 812.30 146.00 C812.18,182.57 812.33,215.31 812.62,218.75 L 813.16 225.00 L 822.58 225.00 L 832.00 225.00 L 832.00 151.96 ZM 1014.48 223.75 C1017.50,214.60 1026.27,190.19 1026.87,189.20 C1027.50,188.19 1034.58,187.92 1060.05,187.97 C1077.86,188.01 1092.72,188.36 1093.07,188.77 C1093.61,189.38 1096.11,196.26 1105.23,222.25 C1106.20,225.00 1106.20,225.00 1116.10,225.00 C1121.54,225.00 1126.00,224.61 1126.00,224.13 C1126.00,223.66 1121.90,212.52 1116.90,199.38 C1102.98,162.87 1092.50,135.33 1084.99,115.50 C1081.24,105.60 1076.60,93.45 1074.67,88.50 L 1071.16 79.50 L 1060.00 79.50 L 1048.84 79.50 L 1040.89 100.00 C1036.52,111.28 1029.37,129.95 1025.00,141.50 C1020.63,153.05 1012.73,173.75 1007.44,187.50 C1002.15,201.25 996.75,215.31 995.45,218.75 L 993.09 225.00 L 1003.58 225.00 C1011.08,225.00 1014.18,224.64 1014.48,223.75 ZM 116.30 245.75 C111.02,240.20 105.40,227.29 102.91,215.00 C102.30,211.98 101.48,199.15 101.08,186.50 L 100.36 163.50 L 94.17 145.50 C90.77,135.60 87.32,124.35 86.51,120.50 C83.94,108.29 84.93,95.65 89.10,87.52 C91.99,81.90 99.58,74.33 105.50,71.17 C109.98,68.78 111.54,68.50 120.50,68.54 C130.40,68.58 130.61,68.63 141.62,73.74 C160.95,82.72 165.26,82.90 180.89,75.38 C194.34,68.91 197.31,68.00 205.09,68.00 C221.11,68.00 231.01,75.55 235.92,91.50 C240.65,106.89 239.58,117.83 230.80,143.50 L 224.65 161.50 L 223.97 185.50 C223.23,211.84 221.99,220.01 216.77,233.25 C213.54,241.46 207.01,249.00 203.14,249.00 C200.25,249.00 194.51,241.97 192.07,235.45 C190.87,232.26 188.81,222.32 187.49,213.36 C184.96,196.15 182.09,187.00 176.82,179.28 C168.12,166.52 157.55,166.90 148.91,180.26 C143.85,188.09 141.30,195.13 139.48,206.32 C135.11,233.20 132.39,241.81 126.77,246.54 C122.84,249.85 120.00,249.64 116.30,245.75 ZM 678.51 207.88 C678.22,207.12 678.10,181.52 678.24,151.00 L 678.50 95.50 L 697.00 95.59 C710.58,95.65 717.55,96.13 723.21,97.40 C748.82,103.12 760.27,119.93 760.39,152.00 C760.50,183.20 749.26,200.27 724.43,206.61 C715.92,208.79 679.24,209.80 678.51,207.88 ZM 1034.47 168.26 C1034.85,166.75 1039.57,153.58 1044.96,139.01 C1050.35,124.43 1055.77,109.69 1057.01,106.25 C1058.25,102.81 1059.55,100.00 1059.89,100.00 C1060.23,100.00 1063.36,107.76 1066.85,117.25 C1070.34,126.74 1076.08,142.27 1079.60,151.78 C1083.12,161.28 1086.00,169.49 1086.00,170.03 C1086.00,170.63 1076.17,171.00 1059.89,171.00 L 1033.78 171.00 L 1034.47 168.26 Z" fill="rgb(253,254,254)"/>
</g>
</svg>