<?xml version="1.0" encoding="UTF-8"?>
<!DOCTYPE svg PUBLIC "-//W3C//DTD SVG 1.1//EN" "http://www.w3.org/Graphics/SVG/1.1/DTD/svg11.dtd">
<svg xmlns="http://www.w3.org/2000/svg" version="1.1" width="863px" height="169px" style="shape-rendering:geometricPrecision; text-rendering:geometricPrecision; image-rendering:optimizeQuality; fill-rule:evenodd; clip-rule:evenodd" xmlns:xlink="http://www.w3.org/1999/xlink">
<g><path style="opacity:1" fill="#297da8" d="M 50.5,-0.5 C 74.1667,-0.5 97.8333,-0.5 121.5,-0.5C 144.746,0.896895 159.579,12.8969 166,35.5C 166.831,67.0027 166.664,98.336 165.5,129.5C 165.667,110.164 165.5,90.8305 165,71.5C 164,72.8333 163,72.8333 162,71.5C 154.508,59.1895 146.508,47.1895 138,35.5C 137.536,36.0944 137.369,36.7611 137.5,37.5C 133.429,22.8377 123.763,16.6711 108.5,19C 104.016,20.7429 99.6829,22.7429 95.5,25C 88.6246,27.8673 81.6246,28.2006 74.5,26C 65.047,19.8541 54.7137,17.8541 43.5,20C 29.1496,28.5516 23.9829,41.0516 28,57.5C 31.0448,67.2584 34.3781,76.925 38,86.5C 38.3085,99.187 38.9751,111.854 40,124.5C 41.4206,131.532 43.754,138.199 47,144.5C 48.9951,147.675 51.8285,149.342 55.5,149.5C 54.7375,150.268 53.7375,150.768 52.5,151C 56.6098,155.109 61.2765,158.443 66.5,161C 68.5268,162.396 68.8602,164.062 67.5,166C 76.1603,166.5 84.8269,166.666 93.5,166.5C 102.833,166.5 112.167,166.5 121.5,166.5C 94.003,167.664 66.3364,167.83 38.5,167C 14.5369,161.55 1.53691,146.716 -0.5,122.5C -0.5,94.8333 -0.5,67.1667 -0.5,39.5C 2.16737,21.4215 12.1674,8.92146 29.5,2C 36.6402,1.09831 43.6402,0.264976 50.5,-0.5 Z"/></g>
<g><path style="opacity:1" fill="#fbfcfd" d="M 137.5,37.5 C 139.151,42.0406 139.651,46.7073 139,51.5C 136.479,63.0646 133.145,74.3979 129,85.5C 129.263,101.653 127.929,117.653 125,133.5C 123.245,140.019 119.745,145.352 114.5,149.5C 110.8,149.464 108.133,147.797 106.5,144.5C 103.091,131.574 99.9242,118.574 97,105.5C 88.8882,89.9113 80.2215,89.578 71,104.5C 67.5029,116.637 64.5029,128.97 62,141.5C 60.9879,145.236 58.8212,147.903 55.5,149.5C 51.8285,149.342 48.9951,147.675 47,144.5C 43.754,138.199 41.4206,131.532 40,124.5C 38.9751,111.854 38.3085,99.187 38,86.5C 34.3781,76.925 31.0448,67.2584 28,57.5C 23.9829,41.0516 29.1496,28.5516 43.5,20C 54.7137,17.8541 65.047,19.8541 74.5,26C 81.6246,28.2006 88.6246,27.8673 95.5,25C 99.6829,22.7429 104.016,20.7429 108.5,19C 123.763,16.6711 133.429,22.8377 137.5,37.5 Z"/></g>
<g><path style="opacity:0.93" fill="#1b79a6" d="M 396.5,35.5 C 400.5,35.5 404.5,35.5 408.5,35.5C 408.333,47.1714 408.5,58.8381 409,70.5C 413.825,63.2689 420.659,59.9355 429.5,60.5C 443.556,60.456 451.39,67.456 453,81.5C 453.5,97.4965 453.667,113.497 453.5,129.5C 449.5,129.5 445.5,129.5 441.5,129.5C 441.667,114.163 441.5,98.8297 441,83.5C 439.851,75.3502 435.184,71.0169 427,70.5C 419.206,70.9737 413.539,74.6404 410,81.5C 408.562,97.4427 408.062,113.443 408.5,129.5C 404.5,129.5 400.5,129.5 396.5,129.5C 396.5,98.1667 396.5,66.8333 396.5,35.5 Z"/></g>
<g><path style="opacity:0.945" fill="#1c79a6" d="M 233.5,37.5 C 258.637,36.9768 273.803,48.9768 279,73.5C 282.632,93.7473 277.132,110.914 262.5,125C 246.167,133.667 229.833,133.667 213.5,125C 198.515,110.583 193.015,93.0829 197,72.5C 200.96,52.036 213.126,40.3694 233.5,37.5 Z M 232.5,48.5 C 248.498,47.3418 258.998,54.3418 264,69.5C 267.741,83.8316 266.074,97.4983 259,110.5C 244.97,125.117 230.97,125.117 217,110.5C 208.388,95.3645 207.388,79.6978 214,63.5C 218.046,55.7461 224.213,50.7461 232.5,48.5 Z"/></g>
<g><path style="opacity:1" fill="#0d3966" d="M 165.5,129.5 C 161.809,149.858 149.809,161.858 129.5,165.5C 127.396,165.799 125.396,165.466 123.5,164.5C 120.559,160.056 117.059,156.056 113,152.5C 112.761,151.212 113.261,150.212 114.5,149.5C 119.745,145.352 123.245,140.019 125,133.5C 127.929,117.653 129.263,101.653 129,85.5C 133.145,74.3979 136.479,63.0646 139,51.5C 139.651,46.7073 139.151,42.0406 137.5,37.5C 137.369,36.7611 137.536,36.0944 138,35.5C 146.508,47.1895 154.508,59.1895 162,71.5C 163,72.8333 164,72.8333 165,71.5C 165.5,90.8305 165.667,110.164 165.5,129.5 Z"/></g>
<g><path style="opacity:0.932" fill="#1b79a5" d="M 537.5,39.5 C 563.167,39.5 588.833,39.5 614.5,39.5C 614.5,43.1667 614.5,46.8333 614.5,50.5C 603.833,50.5 593.167,50.5 582.5,50.5C 582.5,76.8333 582.5,103.167 582.5,129.5C 578.167,129.5 573.833,129.5 569.5,129.5C 569.5,103.167 569.5,76.8333 569.5,50.5C 558.833,50.5 548.167,50.5 537.5,50.5C 537.5,46.8333 537.5,43.1667 537.5,39.5 Z"/></g>
<g><path style="opacity:0.905" fill="#1b79a6" d="M 348.5,42.5 C 352.5,42.5 356.5,42.5 360.5,42.5C 360.5,48.8333 360.5,55.1667 360.5,61.5C 368.167,61.5 375.833,61.5 383.5,61.5C 383.5,64.8333 383.5,68.1667 383.5,71.5C 375.833,71.5 368.167,71.5 360.5,71.5C 360.049,86.5717 360.549,101.572 362,116.5C 362.903,117.701 364.069,118.535 365.5,119C 371.491,119.499 377.491,119.666 383.5,119.5C 383.5,122.833 383.5,126.167 383.5,129.5C 376.159,129.666 368.826,129.5 361.5,129C 354.253,127.418 350.086,122.918 349,115.5C 348.5,100.837 348.333,86.1705 348.5,71.5C 345.833,71.5 343.167,71.5 340.5,71.5C 340.5,68.1667 340.5,64.8333 340.5,61.5C 343.167,61.5 345.833,61.5 348.5,61.5C 348.5,55.1667 348.5,48.8333 348.5,42.5 Z"/></g>
<g><path style="opacity:0.926" fill="#1b79a6" d="M 323.5,60.5 C 328.167,60.5 332.833,60.5 337.5,60.5C 337.5,64.5 337.5,68.5 337.5,72.5C 325.872,68.3582 317.039,71.6915 311,82.5C 309.563,98.1091 309.063,113.776 309.5,129.5C 305.5,129.5 301.5,129.5 297.5,129.5C 297.5,106.833 297.5,84.1667 297.5,61.5C 301.5,61.5 305.5,61.5 309.5,61.5C 309.336,64.1873 309.503,66.854 310,69.5C 313.517,64.8383 318.017,61.8383 323.5,60.5 Z"/></g>
<g><path style="opacity:0.941" fill="#1c79a6" d="M 492.5,60.5 C 514.419,57.0232 527.585,66.0232 532,87.5C 534.569,102.375 530.736,115.208 520.5,126C 505.458,134.254 491.291,133.087 478,122.5C 469.195,108.384 467.528,93.3839 473,77.5C 476.936,68.7207 483.436,63.054 492.5,60.5 Z M 497.5,70.5 C 509.471,69.9616 516.638,75.6283 519,87.5C 520.516,96.9571 519.183,105.957 515,114.5C 506.362,123.452 497.362,123.785 488,115.5C 481.517,103.878 480.851,91.8777 486,79.5C 488.732,74.9074 492.565,71.9074 497.5,70.5 Z"/></g>
<g><path style="opacity:0.926" fill="#1b79a6" d="M 632.5,60.5 C 637.167,60.5 641.833,60.5 646.5,60.5C 646.5,64.5 646.5,68.5 646.5,72.5C 634.872,68.3582 626.039,71.6915 620,82.5C 618.563,98.1091 618.063,113.776 618.5,129.5C 614.5,129.5 610.5,129.5 606.5,129.5C 606.5,106.833 606.5,84.1667 606.5,61.5C 610.5,61.5 614.5,61.5 618.5,61.5C 618.336,64.1873 618.503,66.854 619,69.5C 622.517,64.8383 627.017,61.8383 632.5,60.5 Z"/></g>
<g><path style="opacity:0.926" fill="#1b79a6" d="M 672.5,60.5 C 681.803,59.6802 690.803,60.8469 699.5,64C 707.236,70.306 711.069,78.4726 711,88.5C 711.5,102.163 711.667,115.829 711.5,129.5C 707.5,129.5 703.5,129.5 699.5,129.5C 699.664,126.813 699.497,124.146 699,121.5C 691.059,130.282 681.226,133.448 669.5,131C 662.177,129.674 657.344,125.508 655,118.5C 650.387,100.56 657.221,90.06 675.5,87C 683.521,86.8316 691.521,86.3316 699.5,85.5C 698.505,77.6713 694.171,72.838 686.5,71C 677.034,69.7267 668.034,71.2267 659.5,75.5C 658.167,71.8333 658.167,68.1667 659.5,64.5C 663.946,63.1263 668.279,61.793 672.5,60.5 Z M 677.5,96.5 C 684.833,96.5 692.167,96.5 699.5,96.5C 700.078,110.899 693.411,119.232 679.5,121.5C 667.449,120.291 663.283,113.958 667,102.5C 669.893,99.2737 673.393,97.2737 677.5,96.5 Z"/></g>
<g><path style="opacity:0.941" fill="#1c79a6" d="M 752.5,60.5 C 762.357,59.9167 772.023,60.9167 781.5,63.5C 781.824,67.5546 781.491,71.5546 780.5,75.5C 769.825,69.1743 759.159,69.0076 748.5,75C 741.573,82.8689 739.073,92.0356 741,102.5C 743.122,115.117 750.622,121.45 763.5,121.5C 769.498,120.918 775.164,119.251 780.5,116.5C 781.795,120.38 781.795,124.214 780.5,128C 765.702,133.787 751.702,132.454 738.5,124C 726.464,108.73 724.631,92.2298 733,74.5C 738.012,67.6391 744.512,62.9724 752.5,60.5 Z"/></g>
<g><path style="opacity:0.945" fill="#1c79a6" d="M 820.5,60.5 C 847.5,58.5379 860.5,71.2046 859.5,98.5C 842.5,98.5 825.5,98.5 808.5,98.5C 809.232,113.398 817.065,121.065 832,121.5C 840.28,121.24 848.113,119.24 855.5,115.5C 856.659,119.122 856.825,122.789 856,126.5C 841.21,132.861 826.377,133.028 811.5,127C 801.052,119.607 795.718,109.44 795.5,96.5C 795.39,78.3266 803.724,66.3266 820.5,60.5 Z M 823.5,70.5 C 837.323,69.2336 845.323,75.4003 847.5,89C 834.487,89.8327 821.487,89.666 808.5,88.5C 809.964,79.3832 814.964,73.3832 823.5,70.5 Z"/></g>
<g><path style="opacity:1" fill="#0c3966" d="M 106.5,144.5 C 104.243,144.038 102.243,143.038 100.5,141.5C 98.6255,149.553 94.4589,156.22 88,161.5C 87.3828,162.449 87.5494,163.282 88.5,164C 90.6526,164.099 92.3192,164.933 93.5,166.5C 84.8269,166.666 76.1603,166.5 67.5,166C 68.8602,164.062 68.5268,162.396 66.5,161C 61.2765,158.443 56.6098,155.109 52.5,151C 53.7375,150.768 54.7375,150.268 55.5,149.5C 58.8212,147.903 60.9879,145.236 62,141.5C 64.5029,128.97 67.5029,116.637 71,104.5C 80.2215,89.578 88.8882,89.9113 97,105.5C 99.9242,118.574 103.091,131.574 106.5,144.5 Z"/></g>
<g><path style="opacity:0.999" fill="#2079a5" d="M 106.5,144.5 C 108.133,147.797 110.8,149.464 114.5,149.5C 113.261,150.212 112.761,151.212 113,152.5C 117.059,156.056 120.559,160.056 123.5,164.5C 125.396,165.466 127.396,165.799 129.5,165.5C 127.052,166.473 124.385,166.806 121.5,166.5C 112.167,166.5 102.833,166.5 93.5,166.5C 92.3192,164.933 90.6526,164.099 88.5,164C 87.5494,163.282 87.3828,162.449 88,161.5C 94.4589,156.22 98.6255,149.553 100.5,141.5C 102.243,143.038 104.243,144.038 106.5,144.5 Z"/></g>
</svg>
